grf.mot																		
version=1																		
nRows=12
nColumns=31
inDegrees=yes																		
endheader																		
time	ground_force_vx	ground_force_vy	ground_force_vz	ground_force_px	ground_force_py	ground_force_pz	1_ground_force_vx	1_ground_force_vy	1_ground_force_vz	1_ground_force_px	1_ground_force_py	1_ground_force_pz	ground_torque_x	ground_torque_y	ground_torque_z	1_ground_torque_x	1_ground_torque_y	1_ground_torque_z	apo_force_vx	apo_force_vy	apo_force_vz	apo_force_px	apo_force_py	apo_force_pz	1_apo_force_vx	1_apo_force_vy	1_apo_force_vz	1_apo_force_px	1_apo_force_py	1_apo_force_pz	
0.01500000000000	71.65649999999999	912.76099999999997	-40.01090000000000	-0.31666800000000	0.00000000000000	0.06442220000000	0.00000000000000	0.00000000000000	0.00000000000000	0.00000000000000	0.00000000000000	0.00000000000000	0.00000000000000	2.07518000000000	0.00000000000000	0.00000000000000	0.00000000000000	0.00000000000000	1.07560000000000	-0.14102000000000	0.00000000000000	0.00000000000000	-0.35000000000000	0.00000000000000	-1.74540000000000	-1.31010000000000	0.00000000000000	0.00000000000000	-0.35000000000000	0.00000000000000	
0.02000000000000	79.51530000000000	939.49900000000002	-41.10920000000000	-0.32112700000000	0.00000000000000	0.06413770000000	0.00000000000000	0.00000000000000	0.00000000000000	0.00000000000000	0.00000000000000	0.00000000000000	0.00000000000000	1.83334000000000	0.00000000000000	0.00000000000000	0.00000000000000	0.00000000000000	0.15764000000000	-0.02218300000000	0.00000000000000	0.00000000000000	-0.35000000000000	0.00000000000000	-0.76476000000000	-0.57458000000000	0.00000000000000	0.00000000000000	-0.35000000000000	0.00000000000000	
0.02500000000000	88.11300000000000	965.29800000000000	-41.99850000000000	-0.32661300000000	0.00000000000000	0.06392700000000	0.00000000000000	0.00000000000000	0.00000000000000	0.00000000000000	0.00000000000000	0.00000000000000	0.00000000000000	1.58319000000000	0.00000000000000	0.00000000000000	0.00000000000000	0.00000000000000	-0.76312000000000	0.11471000000000	0.00000000000000	0.00000000000000	-0.35000000000000	0.00000000000000	0.19699000000000	0.14815000000000	0.00000000000000	0.00000000000000	-0.35000000000000	0.00000000000000	
0.03000000000000	97.40250000000000	989.80100000000004	-42.65860000000000	-0.33322400000000	0.00000000000000	0.06379400000000	0.00000000000000	0.00000000000000	0.00000000000000	0.00000000000000	0.00000000000000	0.00000000000000	0.00000000000000	1.32442000000000	0.00000000000000	0.00000000000000	0.00000000000000	0.00000000000000	-1.70440000000000	0.27247000000000	0.00000000000000	0.00000000000000	-0.35000000000000	0.00000000000000	1.14340000000000	0.86095000000000	0.00000000000000	0.00000000000000	-0.35000000000000	0.00000000000000	
0.03500000000000	107.31500000000000	1012.64000000000000	-43.07290000000000	-0.34103000000000	0.00000000000000	0.06374010000000	0.00000000000000	0.00000000000000	0.00000000000000	0.00000000000000	0.00000000000000	0.00000000000000	0.00000000000000	1.05688000000000	0.00000000000000	0.00000000000000	0.00000000000000	0.00000000000000	-2.68220000000000	0.45417000000000	0.00000000000000	0.00000000000000	-0.35000000000000	0.00000000000000	2.07740000000000	1.56650000000000	0.00000000000000	0.00000000000000	-0.35000000000000	0.00000000000000	
0.04000000000000	117.76200000000000	1033.44000000000010	-43.22840000000000	-0.35007100000000	0.00000000000000	0.06376450000000	0.00000000000000	0.00000000000000	0.00000000000000	0.00000000000000	0.00000000000000	0.00000000000000	0.00000000000000	0.78061500000000	0.00000000000000	0.00000000000000	0.00000000000000	0.00000000000000	-3.70950000000000	0.66278000000000	0.00000000000000	0.00000000000000	-0.35000000000000	0.00000000000000	3.00060000000000	2.26640000000000	0.00000000000000	0.00000000000000	-0.35000000000000	0.00000000000000	
0.04500000000000	128.63100000000000	1051.80999999999990	-43.11640000000000	-0.36035400000000	0.00000000000000	0.06386360000000	0.00000000000000	0.00000000000000	0.00000000000000	0.00000000000000	0.00000000000000	0.00000000000000	0.00000000000000	0.49592800000000	0.00000000000000	0.00000000000000	0.00000000000000	0.00000000000000	-4.79410000000000	0.90062000000000	0.00000000000000	0.00000000000000	-0.35000000000000	0.00000000000000	3.91200000000000	2.96090000000000	0.00000000000000	0.00000000000000	-0.35000000000000	0.00000000000000	
0.05000000000000	139.79200000000000	1067.40000000000010	-42.73230000000000	-0.37184600000000	0.00000000000000	0.06403100000000	0.00000000000000	0.00000000000000	0.00000000000000	0.00000000000000	0.00000000000000	0.00000000000000	0.00000000000000	0.20340600000000	0.00000000000000	0.00000000000000	0.00000000000000	0.00000000000000	-5.93720000000000	1.16880000000000	0.00000000000000	0.00000000000000	-0.35000000000000	0.00000000000000	4.80720000000000	3.64730000000000	0.00000000000000	0.00000000000000	-0.35000000000000	0.00000000000000	
0.05500000000000	151.09800000000001	1079.82999999999990	-42.07630000000000	-0.38447500000000	0.00000000000000	0.06425740000000	0.00000000000000	0.00000000000000	0.00000000000000	0.00000000000000	0.00000000000000	0.00000000000000	0.00000000000000	-0.09604370000000	0.00000000000000	0.00000000000000	0.00000000000000	0.00000000000000	-7.13250000000000	1.46660000000000	0.00000000000000	0.00000000000000	-0.35000000000000	0.00000000000000	5.67810000000000	4.32030000000000	0.00000000000000	0.00000000000000	-0.35000000000000	0.00000000000000	
0.06000000000000	162.38499999999999	1088.77000000000000	-41.15310000000000	-0.39812400000000	0.00000000000000	0.06453070000000	0.00000000000000	0.00000000000000	0.00000000000000	0.00000000000000	0.00000000000000	0.00000000000000	0.00000000000000	-0.40116800000000	0.00000000000000	0.00000000000000	0.00000000000000	0.00000000000000	-8.36500000000000	1.79090000000000	0.00000000000000	0.00000000000000	-0.35000000000000	0.00000000000000	6.51260000000000	4.97140000000000	0.00000000000000	0.00000000000000	-0.35000000000000	0.00000000000000	
0.06500000000000	173.47900000000001	1093.91000000000010	-39.97160000000000	-0.41263500000000	0.00000000000000	0.06483590000000	0.00000000000000	0.00000000000000	0.00000000000000	0.00000000000000	0.00000000000000	0.00000000000000	0.00000000000000	-0.71035600000000	0.00000000000000	0.00000000000000	0.00000000000000	0.00000000000000	-9.61330000000000	2.13650000000000	0.00000000000000	0.00000000000000	-0.35000000000000	0.00000000000000	7.29620000000000	5.59030000000000	0.00000000000000	0.00000000000000	-0.35000000000000	0.00000000000000	
0.07000000000000	184.19600000000000	1094.98000000000000	-38.54530000000000	-0.42780400000000	0.00000000000000	0.06515570000000	0.00000000000000	0.00000000000000	0.00000000000000	0.00000000000000	0.00000000000000	0.00000000000000	0.00000000000000	-1.02163000000000	0.00000000000000	0.00000000000000	0.00000000000000	0.00000000000000	-10.84800000000000	2.49510000000000	0.00000000000000	0.00000000000000	-0.35000000000000	0.00000000000000	8.01160000000000	6.16400000000000	0.00000000000000	0.00000000000000	-0.35000000000000	0.00000000000000	
